<svg width="126" height="49" viewBox="0 0 126 49" fill="none" xmlns="http://www.w3.org/2000/svg">
<g clip-path="url(#clip0_3416_285)">
<path d="M24.9519 45.7808L3.13821 24.0082V16.2L24.9519 37.9726V13.5699H22.7656V21.789L0.951904 0V3.06575L22.7656 24.8548V32.7206L0.951904 10.9479V35.3425H3.13821V27.1233L24.9519 48.863V45.7808Z" fill="#F2F2F2"/>
</g>
<path d="M52.0159 16.6316V33.4316H49.6159V25.9436H39.9679V33.4316H37.5679V16.6316H39.9679V23.8556H49.6159V16.6316H52.0159ZM64.8154 33.6236C63.1194 33.6236 61.5914 33.2556 60.2314 32.5196C58.8714 31.7676 57.7994 30.7356 57.0154 29.4236C56.2474 28.1116 55.8634 26.6476 55.8634 25.0316C55.8634 23.4156 56.2474 21.9516 57.0154 20.6396C57.7994 19.3276 58.8714 18.3036 60.2314 17.5676C61.5914 16.8156 63.1194 16.4396 64.8154 16.4396C66.4954 16.4396 68.0154 16.8156 69.3754 17.5676C70.7354 18.3036 71.7994 19.3276 72.5674 20.6396C73.3354 21.9356 73.7194 23.3996 73.7194 25.0316C73.7194 26.6636 73.3354 28.1356 72.5674 29.4476C71.7994 30.7436 70.7354 31.7676 69.3754 32.5196C68.0154 33.2556 66.4954 33.6236 64.8154 33.6236ZM64.8154 31.4876C66.0474 31.4876 67.1514 31.2076 68.1274 30.6476C69.1194 30.0876 69.8954 29.3196 70.4554 28.3436C71.0314 27.3516 71.3194 26.2476 71.3194 25.0316C71.3194 23.8156 71.0314 22.7196 70.4554 21.7436C69.8954 20.7516 69.1194 19.9756 68.1274 19.4156C67.1514 18.8556 66.0474 18.5756 64.8154 18.5756C63.5834 18.5756 62.4634 18.8556 61.4554 19.4156C60.4634 19.9756 59.6794 20.7516 59.1034 21.7436C58.5434 22.7196 58.2634 23.8156 58.2634 25.0316C58.2634 26.2476 58.5434 27.3516 59.1034 28.3436C59.6794 29.3196 60.4634 30.0876 61.4554 30.6476C62.4634 31.2076 63.5834 31.4876 64.8154 31.4876ZM81.7624 16.4396C83.3624 16.4396 84.8024 16.8156 86.0824 17.5676C87.3624 18.3036 88.3704 19.3276 89.1064 20.6396C89.8424 21.9356 90.2104 23.3996 90.2104 25.0316C90.2104 26.6636 89.8424 28.1356 89.1064 29.4476C88.3704 30.7436 87.3624 31.7676 86.0824 32.5196C84.8024 33.2556 83.3624 33.6236 81.7624 33.6236C80.3864 33.6236 79.1384 33.3996 78.0184 32.9516C76.8984 32.5036 75.9624 31.8476 75.2104 30.9836L76.7224 29.4716C77.9864 30.7996 79.6264 31.4636 81.6424 31.4636C82.7144 31.4636 83.6904 31.2316 84.5704 30.7676C85.4504 30.2876 86.1704 29.6236 86.7304 28.7756C87.2904 27.9276 87.6264 26.9596 87.7384 25.8716H79.6024V23.9036H87.7144C87.5544 22.8636 87.1944 21.9436 86.6344 21.1436C86.0744 20.3436 85.3624 19.7196 84.4984 19.2716C83.6344 18.8236 82.6824 18.5996 81.6424 18.5996C79.6424 18.5996 78.0024 19.2636 76.7224 20.5916L75.2104 19.0796C75.9624 18.2156 76.8984 17.5596 78.0184 17.1116C79.1544 16.6636 80.4024 16.4396 81.7624 16.4396ZM99.9552 26.0396H96.4512V33.4316H94.0992V16.6316H96.4512V23.9276H100.003L105.283 16.6316H107.851L101.851 24.7676L108.139 33.4316H105.403L99.9552 26.0396ZM118.064 33.6236C116.384 33.6236 114.864 33.2556 113.504 32.5196C112.16 31.7676 111.104 30.7436 110.336 29.4476C109.568 28.1356 109.184 26.6636 109.184 25.0316C109.184 23.3996 109.568 21.9356 110.336 20.6396C111.104 19.3276 112.168 18.3036 113.528 17.5676C114.888 16.8156 116.408 16.4396 118.088 16.4396C119.4 16.4396 120.6 16.6636 121.688 17.1116C122.776 17.5436 123.704 18.1916 124.472 19.0556L122.912 20.5676C121.648 19.2396 120.072 18.5756 118.184 18.5756C116.936 18.5756 115.808 18.8556 114.8 19.4156C113.792 19.9756 113 20.7516 112.424 21.7436C111.864 22.7196 111.584 23.8156 111.584 25.0316C111.584 26.2476 111.864 27.3516 112.424 28.3436C113 29.3196 113.792 30.0876 114.8 30.6476C115.808 31.2076 116.936 31.4876 118.184 31.4876C120.056 31.4876 121.632 30.8156 122.912 29.4716L124.472 30.9836C123.704 31.8476 122.768 32.5036 121.664 32.9516C120.576 33.3996 119.376 33.6236 118.064 33.6236Z" fill="#F2F2F2"/>
<defs>
<clipPath id="clip0_3416_285">
<rect width="24" height="48.863" fill="white" transform="translate(0.951904)"/>
</clipPath>
</defs>
</svg>
