<svg width="36" height="63" viewBox="0 0 36 63" fill="none" xmlns="http://www.w3.org/2000/svg">
<path d="M25.6252 20.5H25.759C25.8554 20.5034 25.9514 20.4874 26.0413 20.4528C26.1313 20.4182 26.2133 20.3658 26.2825 20.2987C26.3517 20.2317 26.4067 20.1513 26.4441 20.0625C26.4815 19.9737 26.5006 19.8782 26.5002 19.7819V16.75H27.994C28.3526 16.7556 28.7087 16.6901 29.0417 16.5573C29.3748 16.4245 29.6783 16.227 29.9345 15.9762C30.1908 15.7254 30.3949 15.4263 30.5349 15.0962C30.6749 14.766 30.748 14.4114 30.7502 14.0529V3.5C30.748 2.77028 30.4567 2.07116 29.9401 1.55574C29.4235 1.04032 28.7238 0.750592 27.994 0.75H8.00655C7.27677 0.750526 6.57695 1.04022 6.06033 1.55565C5.5437 2.07108 5.25239 2.77023 5.25017 3.5V14.0529C5.25231 14.4114 5.32549 14.766 5.46548 15.0962C5.60548 15.4263 5.80952 15.7254 6.0658 15.9762C6.32208 16.227 6.62552 16.4245 6.9586 16.5573C7.29167 16.6901 7.64776 16.7556 8.0063 16.75H9.50017V19.7819C9.49979 19.8782 9.51887 19.9736 9.55626 20.0624C9.59365 20.1512 9.64858 20.2316 9.71776 20.2986C9.78694 20.3657 9.86894 20.4181 9.95886 20.4527C10.0488 20.4873 10.1448 20.5034 10.241 20.5H10.3752L0.677297 61.3266C0.651119 61.4368 0.65023 61.5515 0.674695 61.662C0.69916 61.7726 0.748344 61.8762 0.818559 61.965C0.888773 62.0539 0.978195 62.1257 1.08011 62.175C1.18203 62.2244 1.29381 62.25 1.40705 62.25H4.21955C4.3883 62.25 4.55212 62.1931 4.68452 62.0884C4.81692 61.9838 4.91016 61.8376 4.94917 61.6734L7.7653 49.8834L15.8752 53.3561V61.5C15.8717 61.5968 15.8877 61.6933 15.9222 61.7838C15.9567 61.8744 16.009 61.957 16.0761 62.027C16.1431 62.0969 16.2235 62.1527 16.3125 62.191C16.4014 62.2293 16.4972 62.2494 16.594 62.25H19.4065C19.5034 62.2493 19.5991 62.2292 19.6881 62.1909C19.777 62.1526 19.8574 62.0968 19.9244 62.0269C19.9914 61.9569 20.0437 61.8743 20.0782 61.7838C20.1126 61.6933 20.1286 61.5968 20.1252 61.5V53.3519L28.2305 49.8625L31.043 61.6729C31.0837 61.8376 31.1785 61.984 31.3122 62.0885C31.4459 62.1931 31.6108 62.2498 31.7805 62.2495H34.593C34.7063 62.2495 34.8181 62.2239 34.92 62.1745C35.0219 62.1252 35.1113 62.0534 35.1815 61.9645C35.2517 61.8757 35.3009 61.7721 35.3254 61.6615C35.3499 61.551 35.349 61.4363 35.3228 61.3261L25.6252 20.5ZM29.2502 12.125H22.9912C23.6494 11.25 24.0348 10.0125 24.0348 8.75775C24.0304 7.79749 23.7972 6.85211 23.3544 6H29.2502V12.125ZM6.75017 3.5C6.75192 3.16796 6.88502 2.85011 7.12039 2.61589C7.35575 2.38167 7.67425 2.25013 8.0063 2.25H27.9938C28.3259 2.25006 28.6444 2.38157 28.8799 2.6158C29.1153 2.85002 29.2484 3.16791 29.2502 3.5V4.5H22.2514C21.1225 3.37511 19.5938 2.74349 18.0002 2.74349C16.4065 2.74349 14.8778 3.37511 13.7489 4.5H6.75017V3.5ZM22.5348 8.77637C22.5346 9.67321 22.2686 10.5499 21.7702 11.2955C21.2718 12.0411 20.5636 12.6222 19.735 12.9653C18.9064 13.3084 17.9946 13.3981 17.1151 13.223C16.2355 13.048 15.4275 12.616 14.7934 11.9818C14.1593 11.3476 13.7275 10.5396 13.5526 9.66001C13.3777 8.7804 13.4676 7.86868 13.8108 7.04013C14.154 6.21158 14.7352 5.50341 15.4809 5.00517C16.2266 4.50693 17.1033 4.241 18.0002 4.241C19.2025 4.24249 20.3552 4.72082 21.2053 5.57107C22.0554 6.42132 22.5335 7.57404 22.5348 8.77637ZM6.75017 6H12.6459C12.2032 6.85211 11.9699 7.79749 11.9655 8.75775C11.9655 10.0129 12.3509 11.25 13.0092 12.125H6.75017V6ZM8.0063 15.25C7.31705 15.25 6.75017 14.7421 6.75017 14.0529V13.625H14.4672C15.4943 14.3705 16.731 14.772 18.0002 14.772C19.2694 14.772 20.506 14.3705 21.5332 13.625H29.2502V14.0529C29.2502 14.7421 28.6833 15.25 27.994 15.25H8.0063ZM3.62655 60.75H2.35605L11.9167 20.5H13.1908L3.62655 60.75ZM15.8752 51.7239L8.1168 48.402L8.3693 47.3717L15.8752 50.74V51.7239ZM15.8752 49.0956L8.71442 45.8859L14.7367 20.5H15.8752V49.0956ZM18.6252 60.75H17.3752V20.5H18.6252V60.75ZM11.0002 19V16.75H25.0002V19H11.0002ZM21.2713 20.5L27.2859 45.8859L20.1252 49.0955V20.5H21.2713ZM20.1252 51.7184V50.7399L27.6388 47.3717L27.8708 48.3814L20.1252 51.7184ZM32.3738 60.75L22.8133 20.5H24.0837L33.6443 60.75H32.3738Z" fill="#F2F2F2"/>
</svg>
