<svg width="48" height="63" viewBox="0 0 48 63" fill="none" xmlns="http://www.w3.org/2000/svg">
<path d="M43.2559 12.2204C43.2214 12.0551 43.132 11.9063 43.0024 11.798L29.2274 0.299269C29.0982 0.19141 28.9365 0.130138 28.7683 0.125309C28.6 0.12048 28.4351 0.172374 28.2999 0.272644L16.6968 8.88039L5.28726 13.7198C5.16955 13.7697 5.06656 13.8489 4.98806 13.9498C4.90956 14.0507 4.85817 14.17 4.83876 14.2964L0.698636 41.2421C0.682539 41.3469 0.688843 41.454 0.717136 41.5561L4.81926 56.3757C4.84723 56.4768 4.89612 56.5709 4.96276 56.652C5.0294 56.7331 5.11231 56.7993 5.20614 56.8463L17.0873 62.7963C17.2162 62.861 17.3612 62.887 17.5046 62.8713L37.9873 60.6318C38.1015 60.6193 38.2113 60.5808 38.3082 60.5191C38.4052 60.4575 38.4866 60.3744 38.5464 60.2763L45.0823 49.5404C45.138 49.449 45.1734 49.3467 45.1861 49.2404L47.3041 31.78C47.314 31.6987 47.3104 31.6164 47.2938 31.5363L43.2559 12.2204ZM45.4926 30.2515L36.9129 25.5579L42.2351 14.6681L45.4926 30.2515ZM29.4934 2.47502L41.5888 12.5721L35.8714 24.2085L29.4704 12.1419L29.4934 2.47502ZM43.2498 48.0774L20.9521 42.4731L15.4463 35.4606L35.4655 26.859L43.2498 48.0774ZM28.4924 13.5346L34.8229 25.5021L15.0623 33.9925L15.5383 24.4131L28.4924 13.5346ZM27.9936 2.36789L27.9723 11.377L18.8098 9.18114L27.9936 2.36789ZM17.1373 10.323L27.0998 12.7105L14.8623 23.0048L6.87476 14.676L17.1373 10.323ZM6.08976 16.0304L14.0414 24.325L13.527 34.675L2.39801 40.0594L6.08976 16.0304ZM2.32964 41.7588L14.0373 36.0944L19.7606 43.3841L19.3493 53.8264L6.09364 55.3569L2.32964 41.7588ZM17.5613 61.3554L8.12839 56.632L20.0049 55.2607L34.168 59.5403L17.5613 61.3554ZM37.567 59L20.8454 53.9477L21.2336 44.0905L43.2719 49.6297L37.567 59ZM44.0724 45.9658L37.2886 27.4729L45.7539 32.1038L44.0724 45.9658Z" fill="#F2F2F2"/>
</svg>
